# xmcd
#
# Track frame offsets:
#	150
#	11550
#	23107
#	37520
#	48673
#	64352
#	77014
#	85062
#	96149
#	107484
#
# Disc length: 1552 seconds
#
# Revision: 0
# Processed by: cddbd v1.5.2PL0 Copyright (c) Steve Scherf et al.
# Submitted via: dBpowerAMP V4.0
#
DISCID=6c060e0a
DTITLE=George Strait - Fresh Cut Christmas
DYEAR=2006
DGENRE=Holiday
TTITLE0=Track01 - Joy To The World
TTITLE1=Track02 - We Three Kings
TTITLE2=Track03 - Silent Night
TTITLE3=Track04 - Jingle Bells
TTITLE4=Track05 - O Come , All Ye Faithful
TTITLE5=Track06 - Up On The Housetop
TTITLE6=Track07 - We Wish You A Merry Christmas
TTITLE7=Track08 - O Christmas Tree
TTITLE8=Track09 - Hark! The Herald Angels Sing
TTITLE9=Track10 - Deck The Halls
EXTD=Hallmark - MCA
EXTT0=
EXTT1=
EXTT2=
EXTT3=
EXTT4=
EXTT5=
EXTT6=
EXTT7=
EXTT8=
EXTT9=
PLAYORDER=
